<?xml version="1.0" encoding="UTF-8" standalone="no"?>
<!-- Created with Inkscape (http://www.inkscape.org/) -->

<svg
   width="184.44896mm"
   height="211.46242mm"
   viewBox="0 0 184.44896 211.46242"
   version="1.1"
   id="svg5"
   inkscape:version="1.1.2 (08b2f3d93c, 2022-04-05)"
   sodipodi:docname="tinker_logo.svg"
   xmlns:inkscape="http://www.inkscape.org/namespaces/inkscape"
   xmlns:sodipodi="http://sodipodi.sourceforge.net/DTD/sodipodi-0.dtd"
   xmlns="http://www.w3.org/2000/svg"
   xmlns:svg="http://www.w3.org/2000/svg">
  <sodipodi:namedview
     id="namedview7"
     pagecolor="#ffffff"
     bordercolor="#666666"
     borderopacity="1.0"
     inkscape:pageshadow="2"
     inkscape:pageopacity="0.0"
     inkscape:pagecheckerboard="0"
     inkscape:document-units="mm"
     showgrid="false"
     inkscape:zoom="0.58268357"
     inkscape:cx="501.98773"
     inkscape:cy="364.69194"
     inkscape:window-width="3768"
     inkscape:window-height="2096"
     inkscape:window-x="72"
     inkscape:window-y="27"
     inkscape:window-maximized="1"
     inkscape:current-layer="layer1"
     fit-margin-top="0"
     fit-margin-left="0"
     fit-margin-right="0"
     fit-margin-bottom="0" />
  <defs
     id="defs2">
    <clipPath
       clipPathUnits="userSpaceOnUse"
       id="clipPath1260">
      <rect
         style="fill:#000000;stroke:#00e000;stroke-width:1;stroke-linejoin:round"
         id="rect1262"
         width="86.695129"
         height="287.63724"
         x="-125.57776"
         y="-7.2672815" />
    </clipPath>
    <clipPath
       clipPathUnits="userSpaceOnUse"
       id="clipPath1260-5">
      <rect
         style="fill:#000000;stroke:#00e000;stroke-width:1;stroke-linejoin:round"
         id="rect1262-6"
         width="86.695129"
         height="287.63724"
         x="-125.57776"
         y="-7.2672815" />
    </clipPath>
    <clipPath
       clipPathUnits="userSpaceOnUse"
       id="clipPath1260-8">
      <rect
         style="fill:#000000;stroke:#00e000;stroke-width:1;stroke-linejoin:round"
         id="rect1262-1"
         width="86.695129"
         height="287.63724"
         x="-125.57776"
         y="-7.2672815" />
    </clipPath>
    <clipPath
       clipPathUnits="userSpaceOnUse"
       id="clipPath1260-5-2">
      <rect
         style="fill:#000000;stroke:#00e000;stroke-width:1;stroke-linejoin:round"
         id="rect1262-6-9"
         width="86.695129"
         height="287.63724"
         x="-125.57776"
         y="-7.2672815" />
    </clipPath>
  </defs>
  <g
     inkscape:label="Layer 1"
     inkscape:groupmode="layer"
     id="layer1"
     transform="translate(-13.01001,-40.235264)">
    <path
       sodipodi:type="star"
       style="fill:#ffffff;stroke:#4b4b4b;stroke-width:6.5;stroke-linejoin:round;stroke-miterlimit:4;stroke-dasharray:none;stroke-opacity:1"
       id="path891"
       inkscape:flatsided="true"
       sodipodi:sides="6"
       sodipodi:cx="-48.832626"
       sodipodi:cy="-39.528706"
       sodipodi:r1="75.471756"
       sodipodi:r2="38.159691"
       sodipodi:arg1="0.52214479"
       sodipodi:arg2="1.0457436"
       inkscape:rounded="0"
       inkscape:randomized="0"
       transform="matrix(1.3431025,0,0,1.3431025,170.82171,199.05758)"
       inkscape:transform-center-x="21.392017"
       inkscape:transform-center-y="-16.054849"
       inkscape:export-filename="/home/catherine/Documents/epicentre/covid_herat/www/path891.png"
       inkscape:export-xdpi="200"
       inkscape:export-ydpi="200"
       d="m 16.58263,-1.8879006 -65.305522,37.8308716 -65.415258,-37.6408054 -0.10973,-75.4716766 65.305519,-37.830869 65.415256,37.640803 z" />
    <g
       fill="#305699"
       id="g840"
       transform="matrix(0.12936975,0,0,0.12936975,27.059966,68.393987)"
       style="fill:#000000">
      <path
         d="M 979.69,533.23 H 912.245 C 904.2684,495.691 889.39,459.535 868.597,427.19 l 47.867,-48.242 c 7.2461,-7.3125 7.2461,-19.105 0,-26.41 l -66.836,-67.367 c -7.0391,-7.0977 -19.586,-7.0977 -26.625,0 l -47.699,48.074 c -32.035,-20.887 -67.828,-35.84 -105.01,-43.875 v -68.148 c 0,-10.352 -8.3984,-18.75 -18.75,-18.75 h -94.535 c -10.352,0 -18.75,8.3984 -18.75,18.75 v 68.148 c -37.18,8.0352 -72.984,22.988 -105.01,43.875 L 385.55,285.171 c -7.0391,-7.0977 -19.586,-7.0977 -26.625,0 l -66.836,67.367 c -7.2461,7.3125 -7.2461,19.105 0,26.41 l 47.867,48.242 c -20.793,32.344 -35.68,68.492 -43.648,106.04 h -67.445 c -10.352,0 -18.75,8.3984 -18.75,18.75 v 95.277 c 0,10.352 8.3984,18.75 18.75,18.75 h 67.445 c 7.9766,37.547 22.855,73.695 43.648,106.04 l -47.867,48.242 c -7.2461,7.3125 -7.2461,19.105 0,26.41 l 66.836,67.367 c 3.5156,3.543 8.3164,5.5391 13.312,5.5391 4.9961,0 9.7891,-1.9961 13.312,-5.5391 l 47.699,-48.074 c 32.035,20.887 67.828,35.84 105.01,43.875 v 68.148 c 0,10.352 8.3984,18.75 18.75,18.75 h 94.527 c 10.352,0 18.75,-8.3984 18.75,-18.75 v -68.148 c 37.18,-8.0352 72.984,-22.988 105.01,-43.875 l 47.699,48.074 c 7.0391,7.0977 19.586,7.0977 26.625,0 l 66.836,-67.367 c 7.2461,-7.3125 7.2461,-19.105 0,-26.41 l -47.867,-48.242 c 20.793,-32.336 35.68,-68.492 43.648,-106.04 h 67.445 c 10.352,0 18.75,-8.3984 18.75,-18.75 V 551.98 c 0.008,-10.348 -8.3906,-18.75 -18.742,-18.75 z M 604.28,758.4 c -86.945,0 -157.68,-71.23 -157.68,-158.77 0,-87.555 70.734,-158.79 157.68,-158.79 86.945,0 157.68,71.23 157.68,158.79 0,87.543 -70.734,158.77 -157.68,158.77 z"
         id="path824"
         style="fill:#000000" />
      <path
         d="m 604.27,478.34 c -66.273,0 -120.18,54.402 -120.18,121.29 0,66.871 53.906,121.27 120.18,121.27 66.273,0 120.18,-54.402 120.18,-121.27 0,-66.868 -53.914,-121.29 -120.18,-121.29 z"
         id="path826"
         style="fill:#000000" />
    </g>
    <g
       id="g1890"
       transform="translate(4.5220572,40.385241)">
      <path
         d="m -149.92023,8.5238573 c -1.33255,-1.332543 -2.93247,-1.99954 -4.79849,-1.99954 h -14.26421 c -1.06521,0 -2.08774,0.265962 -3.06476,0.799253 -0.97839,0.533297 -1.77768,1.244357 -2.40055,2.133217 -21.77168,32.1701497 -26.21456,64.1173497 -13.3297,95.8426627 1.77768,4.44288 1.86725,7.90857 0.26733,10.39742 -3.02203,2.6665 -8.57567,4.22098 -16.6631,4.66619 -1.77631,0.0882 -3.24252,0.79925 -4.39879,2.13184 -1.24435,1.24435 -1.86587,2.7547 -1.86587,4.53248 0,1.77769 0.62148,3.3321 1.86587,4.6662 1.15616,1.24435 2.62241,1.90997 4.39879,1.99954 8.08778,0.44372 13.64121,2.04364 16.6631,4.79848 1.59992,2.39918 1.51032,5.86493 -0.26733,10.39742 -12.88451,31.63711 -8.44198,63.49648 13.3297,95.57809 0.62287,0.88744 1.42212,1.5985 2.40055,2.13183 0.97702,0.5333 1.99955,0.80063 3.06476,0.80063 h 14.26421 c 1.86588,0 3.46576,-0.62286 4.79849,-1.86725 1.24435,-1.33255 1.86587,-2.93247 1.86587,-4.79848 0,-1.86588 -0.62148,-3.42167 -1.86587,-4.6662 -1.33255,-1.33254 -2.93247,-1.99954 -4.79849,-1.99954 h -10.66447 c -17.23919,-27.01502 -20.57259,-53.76333 -9.99772,-80.24636 4.17689,-10.57522 3.42166,-18.66124 -2.2655,-24.26053 -0.79926,-0.88882 -1.64402,-1.73221 -2.53284,-2.53284 0.88882,-0.79925 1.73358,-1.59992 2.53284,-2.39917 5.68713,-5.68713 6.44242,-13.77491 2.2655,-24.26053 -10.57522,-26.659413 -7.24147,-53.498753 9.99772,-80.514473 h 10.66447 c 1.86588,0 3.46576,-0.62149 4.79849,-1.86588 1.24435,-1.33254 1.86587,-2.93246 1.86587,-4.79848 0,-1.86725 -0.62148,-3.4216597 -1.86587,-4.6661897 m 56.518536,-1.200253 c -0.97702,-0.533295 -1.99955,-0.799254 -3.06614,-0.799254 h -14.262796 c -1.86588,0 -3.46576,0.666962 -4.79849,1.999547 -1.24435,1.24435 -1.86587,2.7987997 -1.86587,4.6661897 0,1.86588 0.62149,3.46576 1.86587,4.79848 1.33255,1.24435 2.93247,1.86588 4.79849,1.86588 h 10.66447 c 17.239186,27.01501 20.572586,53.85505 9.996306,80.514473 -4.17548,10.48561 -3.42029,18.57304 2.26688,24.26053 0.79925,0.79925 1.64401,1.59991 2.53284,2.39917 -0.88883,0.80063 -1.73359,1.64401 -2.53284,2.53284 -5.68713,5.59893 -6.44243,13.6853 -2.26688,24.26052 10.57628,26.48162 7.24288,53.23064 -9.996306,80.24637 h -10.66447 c -1.86588,0 -3.46576,0.66696 -4.79849,1.99954 -1.24435,1.24435 -1.86587,2.80017 -1.86587,4.66619 0,1.86588 0.62149,3.46576 1.86587,4.79848 1.33255,1.24436 2.93247,1.86726 4.79849,1.86726 h 14.262796 c 1.06659,0 2.08912,-0.26734 3.06614,-0.80063 0.97839,-0.5333 1.77768,-1.24435 2.39917,-2.13184 21.77309,-32.0809 26.21562,-63.94097 13.33112,-95.57808 -1.77769,-4.53249 -1.86726,-7.99818 -0.26734,-10.39742 3.02203,-2.7547 8.57567,-4.35469 16.66169,-4.79848 1.77768,-0.0896 3.2439,-0.75516 4.4002,-1.99955 1.24298,-1.33392 1.86588,-2.88837 1.86588,-4.66619 0,-1.77768 -0.62287,-3.28799 -1.86588,-4.53249 -1.15616,-1.33255 -2.62241,-2.04364 -4.4002,-2.13184 -8.08637,-0.44509 -13.6398,-1.99954 -16.66169,-4.66619 -1.59992,-2.48874 -1.51031,-5.95453 0.26734,-10.39742 12.8845,-31.725303 8.44197,-63.672863 -13.33112,-95.8426627 -0.62149,-0.88882 -1.42075,-1.59992 -2.39917,-2.133212 z"
         fill="#305699"
         id="path890"
         style="stroke:#305699;stroke-width:1.98613;stroke-miterlimit:4;stroke-dasharray:none;stroke-opacity:1"
         clip-path="url(#clipPath1260-8)"
         transform="matrix(0.59277564,0,0,0.51183312,209.93131,40.597944)" />
      <path
         d="m -149.92023,8.5238573 c -1.33255,-1.332543 -2.93247,-1.99954 -4.79849,-1.99954 h -14.26421 c -1.06521,0 -2.08774,0.265962 -3.06476,0.799253 -0.97839,0.533297 -1.77768,1.244357 -2.40055,2.133217 -21.77168,32.1701497 -26.21456,64.1173497 -13.3297,95.8426627 1.77768,4.44288 1.86725,7.90857 0.26733,10.39742 -3.02203,2.6665 -8.57567,4.22098 -16.6631,4.66619 -1.77631,0.0882 -3.24252,0.79925 -4.39879,2.13184 -1.24435,1.24435 -1.86587,2.7547 -1.86587,4.53248 0,1.77769 0.62148,3.3321 1.86587,4.6662 1.15616,1.24435 2.62241,1.90997 4.39879,1.99954 8.08778,0.44372 13.64121,2.04364 16.6631,4.79848 1.59992,2.39918 1.51032,5.86493 -0.26733,10.39742 -12.88451,31.63711 -8.44198,63.49648 13.3297,95.57809 0.62287,0.88744 1.42212,1.5985 2.40055,2.13183 0.97702,0.5333 1.99955,0.80063 3.06476,0.80063 h 14.26421 c 1.86588,0 3.46576,-0.62286 4.79849,-1.86725 1.24435,-1.33255 1.86587,-2.93247 1.86587,-4.79848 0,-1.86588 -0.62148,-3.42167 -1.86587,-4.6662 -1.33255,-1.33254 -2.93247,-1.99954 -4.79849,-1.99954 h -10.66447 c -17.23919,-27.01502 -20.57259,-53.76333 -9.99772,-80.24636 4.17689,-10.57522 3.42166,-18.66124 -2.2655,-24.26053 -0.79926,-0.88882 -1.64402,-1.73221 -2.53284,-2.53284 0.88882,-0.79925 1.73358,-1.59992 2.53284,-2.39917 5.68713,-5.68713 6.44242,-13.77491 2.2655,-24.26053 -10.57522,-26.659413 -7.24147,-53.498753 9.99772,-80.514473 h 10.66447 c 1.86588,0 3.46576,-0.62149 4.79849,-1.86588 1.24435,-1.33254 1.86587,-2.93246 1.86587,-4.79848 0,-1.86725 -0.62148,-3.4216597 -1.86587,-4.6661897 m 56.518536,-1.200253 c -0.97702,-0.533295 -1.99955,-0.799254 -3.06614,-0.799254 h -14.262796 c -1.86588,0 -3.46576,0.666962 -4.79849,1.999547 -1.24435,1.24435 -1.86587,2.7987997 -1.86587,4.6661897 0,1.86588 0.62149,3.46576 1.86587,4.79848 1.33255,1.24435 2.93247,1.86588 4.79849,1.86588 h 10.66447 c 17.239186,27.01501 20.572586,53.85505 9.996306,80.514473 -4.17548,10.48561 -3.42029,18.57304 2.26688,24.26053 0.79925,0.79925 1.64401,1.59991 2.53284,2.39917 -0.88883,0.80063 -1.73359,1.64401 -2.53284,2.53284 -5.68713,5.59893 -6.44243,13.6853 -2.26688,24.26052 10.57628,26.48162 7.24288,53.23064 -9.996306,80.24637 h -10.66447 c -1.86588,0 -3.46576,0.66696 -4.79849,1.99954 -1.24435,1.24435 -1.86587,2.80017 -1.86587,4.66619 0,1.86588 0.62149,3.46576 1.86587,4.79848 1.33255,1.24436 2.93247,1.86726 4.79849,1.86726 h 14.262796 c 1.06659,0 2.08912,-0.26734 3.06614,-0.80063 0.97839,-0.5333 1.77768,-1.24435 2.39917,-2.13184 21.77309,-32.0809 26.21562,-63.94097 13.33112,-95.57808 -1.77769,-4.53249 -1.86726,-7.99818 -0.26734,-10.39742 3.02203,-2.7547 8.57567,-4.35469 16.66169,-4.79848 1.77768,-0.0896 3.2439,-0.75516 4.4002,-1.99955 1.24298,-1.33392 1.86588,-2.88837 1.86588,-4.66619 0,-1.77768 -0.62287,-3.28799 -1.86588,-4.53249 -1.15616,-1.33255 -2.62241,-2.04364 -4.4002,-2.13184 -8.08637,-0.44509 -13.6398,-1.99954 -16.66169,-4.66619 -1.59992,-2.48874 -1.51031,-5.95453 0.26734,-10.39742 12.8845,-31.725303 8.44197,-63.672863 -13.33112,-95.8426627 -0.62149,-0.88882 -1.42075,-1.59992 -2.39917,-2.133212 z"
         fill="#305699"
         id="path890-3"
         style="stroke:#305699;stroke-width:1.98613;stroke-miterlimit:4;stroke-dasharray:none;stroke-opacity:1"
         clip-path="url(#clipPath1260-5-2)"
         transform="matrix(-0.59277563,1.1782856e-4,-1.3646225e-4,-0.5118331,-8.489121,170.58016)" />
    </g>
    <text
       xml:space="preserve"
       style="font-style:normal;font-weight:normal;font-size:7.68921px;line-height:1.25;font-family:sans-serif;fill:#b3b3b3;fill-opacity:1;stroke:none;stroke-width:0.192231"
       x="92.345299"
       y="148.83305"
       id="text4678"><tspan
         sodipodi:role="line"
         id="tspan4676"
         style="font-style:normal;font-variant:normal;font-weight:bold;font-stretch:normal;font-size:7.68921px;font-family:sans-serif;-inkscape-font-specification:'sans-serif, Bold';font-variant-ligatures:normal;font-variant-caps:normal;font-variant-numeric:normal;font-variant-east-asian:normal;fill:#b3b3b3;stroke-width:0.192231"
         x="92.345299"
         y="148.83305">tinker</tspan></text>
  </g>
</svg>
